<svg width="250" height="85" viewBox="0 0 250 85" fill="none" xmlns="http://www.w3.org/2000/svg">
<g clip-path="url(#clip0_2_10)">
<g clip-path="url(#clip1_2_10)">
<g clip-path="url(#clip2_2_10)">
<g clip-path="url(#clip3_2_10)">
<path d="M136.105 47.0466C136.105 47.5093 136.029 47.8884 135.876 48.1841C135.728 48.4751 135.561 48.8066 135.375 49.1786C135.328 49.1547 135.268 49.1428 135.197 49.1428C135.058 49.1428 134.932 49.1762 134.817 49.243C134.698 49.3145 134.581 49.3741 134.467 49.4218C133.79 50.1659 133.096 50.8884 132.385 51.5896C131.674 52.2859 130.89 52.9012 130.031 53.4353C129.797 53.5784 129.564 53.7144 129.33 53.8431C129.096 53.9671 128.851 54.0888 128.593 54.208C128.503 54.2557 128.417 54.2962 128.336 54.3296C128.255 54.363 128.178 54.4036 128.107 54.4512C127.945 54.5466 127.775 54.6969 127.599 54.902C127.427 55.1118 127.229 55.3288 127.005 55.553C126.786 55.7724 126.547 55.9584 126.29 56.111C126.032 56.2637 125.753 56.328 125.452 56.3042C125.266 56.4187 125.104 56.5689 124.966 56.7549C124.823 56.9409 124.658 57.1269 124.472 57.3129C123.471 57.6659 122.557 58.1261 121.732 58.6937C120.907 59.266 120.051 59.8193 119.164 60.3535C118.63 60.7017 118.093 60.9807 117.554 61.1905C117.44 61.2382 117.306 61.274 117.154 61.2979C117.006 61.3217 116.848 61.3575 116.681 61.4052C115.913 61.5912 115.141 61.7414 114.363 61.8559C113.581 61.9751 112.794 62.0347 112.003 62.0347C111.025 62.0347 110.083 61.9179 109.177 61.6842C109.177 61.6126 109.153 61.5649 109.105 61.5411C109.057 61.5172 109.005 61.4934 108.948 61.4696C108.89 61.4505 108.838 61.4219 108.79 61.3837C108.743 61.3503 108.743 61.2859 108.79 61.1905C108.275 61.1476 107.827 61.0212 107.445 60.8114C107.059 60.6015 106.809 60.2271 106.694 59.6882C106.623 59.7358 106.563 59.7955 106.515 59.867C106.472 59.9338 106.391 59.9576 106.272 59.9385C105.948 59.4711 105.588 59.0395 105.192 58.6436C104.796 58.2478 104.505 57.7708 104.319 57.2128C104.271 57.0935 104.243 56.9815 104.233 56.8765C104.219 56.7716 104.2 56.6619 104.176 56.5474C104.061 56.2231 103.851 56.061 103.546 56.061C103.594 55.9656 103.618 55.8487 103.618 55.7104C103.618 55.6389 103.613 55.5673 103.603 55.4958C103.589 55.429 103.582 55.3598 103.582 55.2883C103.582 55.1738 103.618 55.057 103.689 54.9377C103.456 54.4036 103.293 53.8741 103.203 53.3495C103.107 52.8249 103.06 52.2835 103.06 51.7255C103.06 51.0053 103.095 50.2899 103.167 49.5792C103.234 48.8686 103.267 48.1531 103.267 47.4329C103.41 47.1515 103.522 46.8248 103.603 46.4528C103.685 46.0808 103.83 45.7779 104.04 45.5442C104.016 45.4059 103.968 45.3296 103.897 45.3153C103.83 45.3058 103.797 45.2414 103.797 45.1221C103.797 44.7024 103.878 44.2493 104.04 43.7628C104.202 43.2716 104.283 42.7708 104.283 42.2604C104.493 42.1412 104.627 41.9671 104.684 41.7382C104.741 41.5045 104.863 41.3185 105.049 41.1801V41.0013C105.049 40.6531 105.089 40.3049 105.17 39.9568C105.256 39.6038 105.34 39.2604 105.421 38.9266C105.502 38.5879 105.571 38.2493 105.628 37.9107C105.685 37.572 105.702 37.2405 105.678 36.9162C105.726 36.8447 105.79 36.7111 105.871 36.5156C105.952 36.3153 106.034 36.1054 106.115 35.886C106.196 35.6618 106.267 35.4448 106.329 35.235C106.386 35.0251 106.415 34.8749 106.415 34.7843C106.415 34.6459 106.391 34.5172 106.344 34.3979C106.296 34.2835 106.272 34.1571 106.272 34.0188C106.272 33.8995 106.308 33.7302 106.379 33.5108C106.451 33.2866 106.508 33.1054 106.551 32.9671C106.646 32.5712 106.735 32.1587 106.816 31.7294C106.897 31.2954 106.973 30.8804 107.045 30.4846C107.254 29.2063 107.405 27.921 107.495 26.6284C107.591 25.3359 107.65 24.0362 107.674 22.7294C107.999 22.5434 108.342 22.3693 108.704 22.2071C109.062 22.0449 109.439 21.9639 109.835 21.9639C109.954 21.9639 110.071 21.9758 110.185 21.9996C110.305 22.0235 110.421 22.0593 110.536 22.107C110.65 22.5696 110.836 22.9416 111.094 23.223C111.351 23.4996 111.585 23.8359 111.795 24.2318C111.652 24.6038 111.559 24.9877 111.516 25.3836L111.409 26.5783C111.385 26.9742 111.337 27.3629 111.266 27.7445C111.199 28.1308 111.084 28.4981 110.922 28.8462C110.965 28.9607 110.987 29.0776 110.987 29.1968V29.5474C110.987 29.8717 110.958 30.1841 110.901 30.4846C110.844 30.7898 110.779 31.0998 110.708 31.4146C110.641 31.7294 110.584 32.037 110.536 32.3375C110.488 32.6428 110.488 32.9456 110.536 33.2461C110.464 33.3653 110.395 33.4536 110.328 33.5108C110.257 33.568 110.209 33.6539 110.185 33.7684L110.114 34.4337C110.071 34.6913 110.03 34.9417 109.992 35.1849C109.959 35.4281 109.918 35.6785 109.871 35.9361C109.708 36.6372 109.527 37.3359 109.327 38.0323C109.131 38.7334 109.034 39.456 109.034 40.2V40.4075C108.824 40.7318 108.661 41.1348 108.547 41.6166C108.428 42.0935 108.392 42.5299 108.44 42.9258C108.182 43.5983 107.937 44.2612 107.703 44.9147C107.474 45.5681 107.359 46.243 107.359 46.9393C107.359 47.0585 107.364 47.1802 107.374 47.3042C107.383 47.4329 107.4 47.557 107.424 47.6762C107.238 48.1388 107.123 48.6086 107.08 49.0856C107.033 49.5673 107.009 50.0395 107.009 50.5021C107.009 50.8312 107.026 51.2104 107.059 51.6396C107.092 52.0689 107.152 52.5101 107.238 52.9632C107.319 53.421 107.417 53.8598 107.531 54.2795C107.646 54.6945 107.774 55.0307 107.917 55.2883C108.452 56.1516 109.155 56.8336 110.028 57.3344C110.901 57.8352 111.826 58.1548 112.804 58.2931C113.2 58.1548 113.522 58.0737 113.77 58.0498C114.013 58.026 114.356 58.026 114.8 58.0498C115.172 57.8638 115.549 57.7231 115.93 57.6277C116.317 57.5371 116.708 57.4322 117.103 57.3129C117.218 57.27 117.34 57.2247 117.468 57.177C117.597 57.1293 117.709 57.0816 117.805 57.0339C117.919 56.991 118.045 56.8861 118.184 56.7191C118.327 56.557 118.456 56.4187 118.57 56.3042C119.061 56.1611 119.526 55.9679 119.965 55.7247C120.409 55.4815 120.84 55.2311 121.26 54.9735L122.555 54.208C122.994 53.9505 123.459 53.7287 123.95 53.5427C124.136 53.4711 124.246 53.3733 124.279 53.2493C124.317 53.1206 124.382 52.9632 124.472 52.7772C124.52 52.8201 124.589 52.8415 124.68 52.8415C124.961 52.8415 125.159 52.7557 125.274 52.584C125.393 52.4075 125.534 52.2263 125.696 52.0403C126.001 51.9926 126.292 51.9043 126.569 51.7756C126.85 51.6516 127.06 51.4489 127.198 51.1675C127.78 51.053 128.293 50.8431 128.736 50.5379C129.18 50.2374 129.611 49.9059 130.031 49.5434C130.446 49.181 130.863 48.8304 131.283 48.4918C131.703 48.1579 132.182 47.886 132.721 47.6762C132.788 47.557 132.833 47.452 132.857 47.3614C132.881 47.266 132.917 47.1611 132.964 47.0466C133.36 46.9989 133.675 46.8868 133.909 46.7104C134.138 46.5387 134.405 46.3598 134.71 46.1738C135.363 46.2406 135.829 46.5315 136.105 47.0466ZM154.756 34.82C154.618 35.0299 154.537 35.2636 154.513 35.5211C154.489 35.7739 154.477 36.0052 154.477 36.2151C154.477 36.4965 154.484 36.7708 154.499 37.0378C154.508 37.3049 154.513 37.5673 154.513 37.8248V38.3471C154.465 38.5092 154.396 38.6714 154.306 38.8336C154.21 39.0005 154.141 39.165 154.098 39.3272C153.769 40.1857 153.604 41.0466 153.604 41.9099V41.9814C153.49 42.258 153.38 42.5132 153.275 42.7469C153.17 42.9806 153.07 43.2072 152.975 43.4266C152.884 43.6507 152.815 43.8844 152.767 44.1277C152.72 44.3709 152.708 44.6571 152.732 44.9862C152.407 45.8018 151.976 46.5411 151.437 47.204C150.902 47.867 150.38 48.5466 149.87 49.243C149.379 49.4337 148.93 49.6794 148.525 49.9799C148.115 50.2803 147.724 50.619 147.352 50.9958C146.631 51.2247 145.921 51.4918 145.22 51.797C144.523 52.0975 143.896 52.5053 143.338 53.0204C142.895 53.0681 142.451 53.1373 142.007 53.2279C141.564 53.3233 141.132 53.464 140.712 53.65H140.298C140.088 53.65 139.935 53.6023 139.84 53.5069C139.539 53.6691 139.227 53.7811 138.902 53.8431C138.573 53.9004 138.247 53.929 137.922 53.929C137.503 53.929 137.088 53.9004 136.677 53.8431C136.272 53.7811 135.86 53.7167 135.44 53.65C135.206 53.3209 134.879 53.0705 134.46 52.8988C134.045 52.7223 133.673 52.553 133.344 52.3908C132.671 51.4608 132.182 50.557 131.877 49.6794C131.577 48.8066 131.262 47.824 130.933 46.7318C130.98 46.4075 131.061 46.088 131.176 45.7732C131.295 45.4584 131.343 45.115 131.319 44.743C131.739 43.5315 132.292 42.4298 132.979 41.4377C133.666 40.4504 134.45 39.5013 135.332 38.5903C135.332 38.452 135.363 38.3351 135.425 38.2398C135.483 38.1491 135.487 38.0108 135.44 37.8248C135.464 37.8487 135.511 37.8606 135.583 37.8606C135.769 37.8606 135.886 37.8081 135.933 37.7032C135.976 37.5983 135.986 37.4743 135.962 37.3312C136.801 36.797 137.565 36.1817 138.251 35.4854C138.938 34.7843 139.725 34.2 140.612 33.7326C140.679 33.5275 140.796 33.3534 140.963 33.2103C141.125 33.072 141.251 32.9098 141.342 32.7238C142.091 32.514 142.768 32.1992 143.374 31.7795C143.975 31.3598 144.614 30.9877 145.291 30.6634C145.663 30.4536 146.019 30.3081 146.357 30.227C146.696 30.1459 147.063 30.0577 147.459 29.9623C147.597 29.9146 147.726 29.8788 147.845 29.855C147.96 29.8359 148.086 29.8264 148.224 29.8264C148.644 29.8264 149.052 29.9003 149.448 30.0482C149.844 30.2008 150.251 30.2771 150.671 30.2771C150.786 30.2771 150.886 30.2723 150.972 30.2628C151.053 30.2485 151.139 30.2294 151.229 30.2055C151.625 30.6968 152.126 31.0712 152.732 31.3288C152.87 31.6769 153.039 31.9798 153.24 32.2374C153.435 32.4901 153.638 32.7405 153.848 32.9885C154.058 33.2318 154.251 33.4989 154.427 33.7898C154.604 34.0808 154.713 34.4242 154.756 34.82ZM151.265 36.6372C151.265 36.518 151.253 36.413 151.229 36.3224C150.995 36.2509 150.774 36.1579 150.564 36.0434C150.354 35.9242 150.123 35.8645 149.87 35.8645C149.708 35.8645 149.543 35.9003 149.376 35.9719C149.357 35.8097 149.295 35.6928 149.19 35.6213C149.085 35.5545 148.968 35.4901 148.84 35.4281C148.711 35.3709 148.582 35.3256 148.453 35.2922C148.325 35.2541 148.215 35.1897 148.124 35.099C148.053 34.913 147.976 34.7199 147.895 34.5196C147.814 34.324 147.669 34.1785 147.459 34.0831C147.249 34.293 147.003 34.4623 146.722 34.5911C146.445 34.7199 146.162 34.8415 145.871 34.956C145.58 35.0752 145.298 35.2159 145.026 35.3781C144.759 35.5402 144.533 35.7382 144.347 35.9719H143.717C143.579 36.2294 143.381 36.4226 143.123 36.5514C142.871 36.6754 142.651 36.8542 142.465 37.0879C142.088 37.2739 141.745 37.5005 141.435 37.7676C141.12 38.0394 140.81 38.3208 140.505 38.6118C140.205 38.9027 139.909 39.1984 139.618 39.4989C139.327 39.8041 139.017 40.0832 138.688 40.3359C138.387 40.9894 138.056 41.5545 137.693 42.0315C137.331 42.5084 136.992 42.9926 136.677 43.4838C136.367 43.9703 136.1 44.4997 135.876 45.072C135.657 45.6444 135.547 46.3479 135.547 47.1825V47.5331C135.547 47.6523 135.559 47.7692 135.583 47.8837C135.883 48.208 136.134 48.5585 136.334 48.9353C136.53 49.3074 136.861 49.5744 137.329 49.7366C137.791 49.9226 138.285 50.0037 138.809 49.9799C139.334 49.956 139.842 50.0132 140.333 50.1516C141.449 49.9417 142.525 49.5983 143.56 49.1213C144.6 48.6444 145.584 48.0697 146.515 47.3972C146.653 47.2779 146.815 47.1539 147.001 47.0252C147.187 46.9011 147.34 46.7676 147.459 46.6245C147.573 46.51 147.671 46.3837 147.752 46.2453C147.833 46.1023 147.922 45.9735 148.017 45.859C148.203 45.5538 148.413 45.2509 148.647 44.9504C148.88 44.6452 149.123 44.3662 149.376 44.1134C149.495 43.5983 149.648 43.1022 149.834 42.6253C150.02 42.1484 150.206 41.6762 150.392 41.2088C150.578 40.7461 150.736 40.2692 150.864 39.7779C150.993 39.2914 151.057 38.7787 151.057 38.2398C151.057 38.1253 151.05 37.9989 151.036 37.8606C151.026 37.7175 151.01 37.5887 150.986 37.4743C151.172 37.2167 151.265 36.9377 151.265 36.6372ZM176.348 30.1698C176.348 30.5656 176.329 30.9448 176.29 31.3073C176.257 31.6698 176.183 32.049 176.069 32.4448C175.859 32.607 175.67 32.8049 175.504 33.0386L175.017 33.704C174.855 33.9138 174.681 34.1165 174.495 34.3121C174.309 34.5124 174.075 34.6698 173.794 34.7843C173.56 35.8097 173.276 36.7946 172.942 37.739C172.604 38.6785 172.353 39.6611 172.191 40.6865C171.91 41.2016 171.688 41.762 171.526 42.3677C171.364 42.9687 171.194 43.5792 171.018 44.1992C170.841 44.8145 170.648 45.4011 170.438 45.9592C170.233 46.522 169.942 47.0228 169.565 47.4616C169.379 48.0244 169.193 48.6253 169.007 49.2644C168.821 49.9035 168.507 50.433 168.063 50.8527C168.087 50.9004 168.099 50.9695 168.099 51.0601C168.099 51.3415 168.03 51.6039 167.891 51.8471C167.753 52.0904 167.684 52.3407 167.684 52.5983C167.312 52.8797 166.957 53.2064 166.618 53.5784C166.279 53.9505 165.936 54.3225 165.588 54.6945C165.24 55.0665 164.868 55.3932 164.472 55.6746C164.076 55.9513 163.644 56.1373 163.177 56.2327C162.848 55.999 162.545 55.7366 162.268 55.4457C161.987 55.1548 161.66 54.9163 161.288 54.7303C161.102 53.681 160.992 52.6508 160.959 51.6396C160.921 50.6285 160.833 49.6221 160.694 48.6205C160.604 48.0339 160.458 47.4735 160.258 46.9393C160.062 46.4051 159.965 45.859 159.965 45.301C159.965 45.1817 159.969 45.0577 159.979 44.929C159.993 44.805 160.01 44.6833 160.029 44.5641C159.8 44.3065 159.65 43.987 159.578 43.6054C159.507 43.2191 159.449 42.8232 159.406 42.4178C159.359 42.0077 159.294 41.6046 159.213 41.2088C159.132 40.8129 158.987 40.4766 158.777 40.2C158.868 40.1046 158.913 39.9758 158.913 39.8137C158.913 39.6992 158.896 39.5824 158.863 39.4631C158.825 39.3487 158.806 39.2318 158.806 39.1126C158.806 39.0219 158.841 38.917 158.913 38.7978C158.727 38.5688 158.605 38.3542 158.548 38.1539C158.491 37.9584 158.45 37.7604 158.426 37.5601C158.403 37.3646 158.383 37.1618 158.369 36.952C158.36 36.7421 158.331 36.5204 158.283 36.2866C158.236 36.1245 158.162 36.0029 158.061 35.9218C157.957 35.8407 157.904 35.7763 157.904 35.7286C157.904 35.6094 157.949 35.5164 158.04 35.4496C157.716 34.9822 157.449 34.4933 157.239 33.983C157.029 33.4679 156.795 32.9552 156.538 32.4448C156.561 32.1873 156.654 31.9893 156.817 31.851C156.979 31.7127 157.096 31.5267 157.167 31.293H158.283C159.309 33.2962 160.096 35.3733 160.644 37.5243C161.193 39.6801 161.674 41.8526 162.089 44.0418C162.209 44.6714 162.321 45.301 162.426 45.9306C162.53 46.5554 162.652 47.1945 162.79 47.8479C162.838 47.9862 162.907 48.1388 162.998 48.3058C163.093 48.4679 163.141 48.6301 163.141 48.7922C163.141 48.9306 163.105 49.0713 163.034 49.2144C163.177 49.305 163.289 49.4314 163.37 49.5935C163.451 49.7557 163.52 49.925 163.577 50.1015C163.635 50.2779 163.687 50.452 163.735 50.6237C163.782 50.8002 163.852 50.9576 163.942 51.0959C164.224 51.0721 164.469 50.9457 164.679 50.7167C164.889 50.483 165.08 50.2088 165.251 49.894C165.428 49.5792 165.593 49.2644 165.745 48.9496C165.893 48.6349 166.072 48.3845 166.282 48.1984C166.306 47.9409 166.358 47.6905 166.439 47.4473C166.52 47.204 166.561 46.9536 166.561 46.6961C166.794 46.3002 167.004 45.9282 167.19 45.58C167.376 45.2318 167.493 44.8121 167.541 44.3209C167.66 44.2255 167.729 44.1492 167.748 44.0919C167.772 44.0347 167.877 44.0299 168.063 44.0776C168.063 43.448 168.163 42.8352 168.364 42.239C168.559 41.6476 168.833 41.0848 169.186 40.5506C169.229 40.0116 169.339 39.4703 169.515 38.9266C169.692 38.3781 169.897 37.8367 170.131 37.3025C170.197 37.1356 170.29 36.9425 170.41 36.7231C170.524 36.5037 170.581 36.301 170.581 36.1149C170.581 36.0196 170.565 35.9313 170.531 35.8502C170.493 35.7692 170.474 35.6809 170.474 35.5855C170.474 35.3995 170.546 35.2374 170.689 35.099C170.827 34.9607 170.953 34.82 171.068 34.6769C171.068 34.1428 171.128 33.6086 171.247 33.0744C171.361 32.5354 171.593 32.068 171.941 31.6722C172.06 30.8804 172.213 30.1078 172.399 29.3542C172.585 28.5958 172.852 27.8685 173.2 27.1722H174.459C174.459 26.7286 174.657 26.5068 175.053 26.5068C175.287 26.5068 175.542 26.564 175.818 26.6785C176.004 27.1936 176.14 27.7707 176.226 28.4098C176.307 29.0489 176.348 29.6356 176.348 30.1698ZM198.383 32.8312V32.9671C198.221 33.0148 198.14 33.1316 198.14 33.3176C197.887 33.4321 197.62 33.5203 197.338 33.5823C197.057 33.6396 196.79 33.7254 196.537 33.8399C196.279 33.8161 196.017 33.7994 195.75 33.7898C195.483 33.7755 195.221 33.7684 194.963 33.7684C194.262 33.7684 193.563 33.7922 192.867 33.8399C192.17 33.8876 191.472 33.8876 190.771 33.8399C190.446 34.0259 190.091 34.1714 189.705 34.2763C189.323 34.3812 188.956 34.4337 188.603 34.4337C188.326 34.4337 188.083 34.3979 187.873 34.3264C187.315 34.6078 186.702 34.8415 186.035 35.0275C185.372 35.2135 184.704 35.3948 184.031 35.5712C183.354 35.7429 182.708 35.9409 182.093 36.165C181.473 36.3844 180.931 36.6921 180.469 37.0879C180.421 37.417 180.385 37.739 180.361 38.0537C180.337 38.3638 180.325 38.6714 180.325 38.9766C180.325 39.301 180.342 39.6038 180.376 39.8852C180.414 40.1619 180.49 40.4409 180.604 40.7223C180.724 40.77 180.857 40.8057 181.005 40.8296C181.158 40.8534 181.291 40.8654 181.406 40.8654C181.525 40.8654 181.642 40.8463 181.756 40.8081C181.876 40.7747 181.957 40.7008 182 40.5863C182.352 40.5386 182.703 40.5196 183.051 40.5291C183.399 40.5434 183.748 40.5506 184.096 40.5506C184.449 40.5506 184.792 40.5386 185.126 40.5148C185.465 40.491 185.798 40.4313 186.128 40.3359C186.5 40.2453 186.864 40.1881 187.222 40.1642C187.585 40.1404 187.94 40.1165 188.288 40.0927C188.641 40.0689 189.004 40.0283 189.376 39.9711C189.748 39.9138 190.132 39.7922 190.527 39.6062C190.828 39.7207 191.136 39.7779 191.45 39.7779C191.765 39.7779 192.075 39.8018 192.38 39.8495C192.543 39.9639 192.676 40.0927 192.781 40.2358C192.886 40.3741 192.938 40.5363 192.938 40.7223C192.938 41.0466 192.822 41.3733 192.588 41.7024C192.354 42.0267 192.168 42.3296 192.03 42.611H191.643C191.085 42.611 190.544 42.6849 190.019 42.8328C189.495 42.9854 188.97 43.1619 188.446 43.3622C187.921 43.5577 187.399 43.7318 186.879 43.8844C186.354 44.0371 185.813 44.1134 185.255 44.1134C185.159 44.1134 185.107 44.1658 185.097 44.2708C185.083 44.3757 185.052 44.4496 185.004 44.4926C184.89 44.4735 184.716 44.4639 184.482 44.4639C183.948 44.4639 183.435 44.5212 182.944 44.6356C182.457 44.7501 181.957 44.8073 181.442 44.8073C181.303 44.8073 181.165 44.8026 181.027 44.793C180.883 44.7787 180.743 44.762 180.604 44.743C180.49 44.929 180.34 45.0506 180.154 45.1078C179.968 45.1651 179.791 45.2628 179.624 45.4011C179.558 45.611 179.517 45.8686 179.503 46.1738C179.493 46.4743 179.481 46.7819 179.467 47.0967C179.457 47.4115 179.429 47.7096 179.381 47.991C179.333 48.2676 179.24 48.487 179.102 48.6492C179.126 48.7684 179.219 48.8113 179.381 48.7779C179.543 48.7398 179.624 48.8137 179.624 48.9997C179.624 49.2096 179.603 49.4314 179.56 49.6651C179.512 49.8988 179.488 50.1325 179.488 50.3662C179.488 50.805 179.541 51.2867 179.646 51.8113C179.751 52.336 179.913 52.8201 180.132 53.2636C180.356 53.7072 180.655 54.0745 181.027 54.3654C181.399 54.6563 181.864 54.8018 182.422 54.8018C182.794 54.8018 183.144 54.7326 183.473 54.5943C183.798 54.4512 184.065 54.2175 184.275 53.8932L184.446 53.8574C184.542 53.8574 184.63 53.8694 184.711 53.8932C184.792 53.9171 184.878 53.929 184.969 53.929C185.112 53.929 185.293 53.8408 185.512 53.6643C185.736 53.4926 185.982 53.2899 186.249 53.0562C186.516 52.8225 186.788 52.5935 187.065 52.3694C187.346 52.15 187.616 51.995 187.873 51.9043C188.035 51.5752 188.193 51.2485 188.345 50.9242C188.493 50.5951 188.72 50.3376 189.025 50.1516V49.1428C189.259 48.8853 189.509 48.6516 189.776 48.4417C190.043 48.2318 190.246 47.9647 190.384 47.6404C190.504 47.6881 190.616 47.7215 190.721 47.7406C190.825 47.7644 190.935 47.7763 191.05 47.7763C191.164 47.7763 191.286 47.7644 191.415 47.7406C191.543 47.7215 191.667 47.6881 191.787 47.6404C191.973 47.898 192.118 48.1818 192.223 48.4918C192.328 48.8066 192.461 49.1047 192.624 49.3861C192.414 49.8058 192.168 50.3066 191.887 50.8884C191.61 51.4703 191.307 52.0522 190.978 52.6341C190.654 53.216 190.31 53.7692 189.948 54.2939C189.59 54.8185 189.235 55.2191 188.882 55.4958C188.815 55.5673 188.665 55.6508 188.431 55.7462C188.174 55.9322 187.94 56.111 187.73 56.2827C187.52 56.4592 187.322 56.6643 187.136 56.898C186.464 57.1079 185.818 57.3869 185.198 57.735C184.582 58.0832 183.972 58.4219 183.366 58.7509C183.085 58.6794 182.782 58.6436 182.457 58.6436C182.176 58.6436 181.897 58.6603 181.62 58.6937C181.339 58.7319 181.036 58.7509 180.712 58.7509C180.616 58.6317 180.483 58.5554 180.311 58.522C180.135 58.4886 180.07 58.367 180.118 58.1571C179.326 58.1094 178.685 57.8924 178.194 57.5061C177.707 57.1245 177.294 56.6524 176.956 56.0896C176.617 55.5315 176.343 54.9282 176.133 54.2795C175.923 53.6261 175.701 52.9966 175.468 52.3908V52.2835C175.468 52.169 175.515 52.0999 175.611 52.076C175.701 52.0522 175.747 51.983 175.747 51.8686C175.747 51.8209 175.737 51.7851 175.718 51.7613C175.647 51.5037 175.587 51.2819 175.539 51.0959C175.492 50.9099 175.468 50.6881 175.468 50.4306C175.468 50.0585 175.492 49.6937 175.539 49.336C175.587 48.9735 175.611 48.6062 175.611 48.2342C175.611 47.8622 175.563 47.5355 175.468 47.2541C175.563 47.1396 175.639 46.9822 175.697 46.7819C175.754 46.5864 175.794 46.3837 175.818 46.1738C175.842 45.9639 175.859 45.7541 175.868 45.5442C175.883 45.3344 175.914 45.1484 175.961 44.9862C175.866 44.7286 175.785 44.5021 175.718 44.3065C175.647 44.1062 175.611 43.8654 175.611 43.584V43.3407C175.845 42.9449 176.042 42.5371 176.205 42.1173C176.367 41.6976 176.541 41.2684 176.727 40.8296V40.7223C176.727 40.045 176.703 39.3701 176.655 38.6976C176.612 38.0204 176.591 37.3455 176.591 36.673V36.0076C176.591 35.7739 176.6 35.5521 176.62 35.3423C176.81 35.2517 176.951 35.1229 177.042 34.956C177.137 34.7938 177.278 34.6674 177.464 34.5768H178.616L178.823 34.2262C178.895 34.107 178.942 33.9782 178.966 33.8399C179.219 33.7684 179.469 33.6706 179.717 33.5466C179.961 33.4178 180.187 33.2819 180.397 33.1388C180.721 32.9528 181.017 32.7858 181.284 32.638C181.551 32.4854 181.821 32.3566 182.093 32.2517C182.36 32.1467 182.643 32.0585 182.944 31.987C183.249 31.9202 183.6 31.8629 183.996 31.8152C184.182 31.8152 184.303 31.7795 184.36 31.7079C184.418 31.6412 184.506 31.5601 184.625 31.4647C184.902 31.5124 185.181 31.5529 185.462 31.5863C185.739 31.6245 186.018 31.6435 186.299 31.6435C186.857 31.6435 187.382 31.5386 187.873 31.3288C188.57 31.3288 189.261 31.3168 189.948 31.293C190.635 31.2691 191.329 31.2572 192.03 31.2572C192.636 31.2572 193.241 31.2811 193.847 31.3288C194.453 31.3717 195.046 31.4528 195.628 31.572C195.838 31.5005 196.07 31.4647 196.322 31.4647C196.604 31.4647 196.89 31.4933 197.181 31.5505C197.472 31.6125 197.758 31.6197 198.039 31.572C198.063 31.8248 198.125 32.0394 198.225 32.2159C198.33 32.3924 198.383 32.5974 198.383 32.8312ZM241.387 48.964C241.339 49.3169 241.218 49.5864 241.022 49.7724C240.822 49.9584 240.593 50.1325 240.335 50.2946C240.221 50.2708 240.111 50.2541 240.006 50.2446C239.901 50.2303 239.791 50.2231 239.677 50.2231C238.952 50.1992 238.27 50.2923 237.631 50.5021C236.992 50.712 236.334 50.8646 235.656 50.96C235.423 51.0029 235.208 51.0196 235.012 51.0101C234.812 51.0005 234.607 51.0172 234.397 51.0601C233.653 51.1794 232.861 51.2724 232.022 51.3392C231.187 51.4107 230.35 51.4989 229.511 51.6039C228.671 51.7088 227.851 51.8376 227.05 51.9902C226.244 52.138 225.493 52.3527 224.796 52.6341C224.725 52.5864 224.653 52.5339 224.582 52.4767C224.515 52.4194 224.434 52.3908 224.338 52.3908C224.105 52.3908 223.883 52.4266 223.673 52.4981C223.463 52.5649 223.253 52.5864 223.043 52.5625C222.814 52.7056 222.566 52.8058 222.299 52.863C222.027 52.9202 221.758 52.9656 221.491 52.9989C221.224 53.0371 220.962 53.0896 220.704 53.1563C220.451 53.2279 220.208 53.3567 219.974 53.5427C219.788 53.452 219.562 53.3996 219.295 53.3853C219.023 53.3757 218.841 53.2875 218.751 53.1206C218.217 53.3781 217.651 53.5427 217.055 53.6142C216.464 53.681 215.865 53.7048 215.26 53.6857C214.864 53.6619 214.408 53.6023 213.893 53.5069C213.383 53.4163 212.87 53.2827 212.355 53.1063C211.845 52.9298 211.368 52.7199 210.924 52.4767C210.481 52.2334 210.144 51.9377 209.915 51.5896C209.748 51.3559 209.632 51.0983 209.565 50.8169C209.493 50.5403 209.329 50.3304 209.071 50.1873C209.143 49.6531 209.226 49.1309 209.322 48.6205C209.412 48.1054 209.505 47.5808 209.601 47.0466C210.063 46.6507 210.504 46.231 210.924 45.7875C211.344 45.3439 211.74 44.8789 212.112 44.3924C212.555 44.1825 212.97 43.925 213.357 43.6197C213.738 43.3193 214.122 43.0116 214.508 42.6968C214.89 42.3821 215.274 42.0744 215.66 41.7739C216.042 41.4687 216.454 41.1992 216.898 40.9655C216.969 40.8034 217.07 40.6698 217.198 40.5649C217.322 40.46 217.456 40.355 217.599 40.2501C217.737 40.1452 217.864 40.0283 217.978 39.8995C218.097 39.7708 218.181 39.6134 218.229 39.4274C219.044 38.9409 219.755 38.3256 220.361 37.5816C220.962 36.8328 221.357 35.9933 221.548 35.0633C221.152 34.7389 220.704 34.5243 220.203 34.4194C219.702 34.3145 219.182 34.2382 218.644 34.1905C218.181 34.1666 217.699 34.1666 217.198 34.1905C216.698 34.2143 216.19 34.2024 215.675 34.1547C215.164 34.3168 214.635 34.4218 214.086 34.4695C213.538 34.5172 212.996 34.5577 212.462 34.5911C211.928 34.6245 211.399 34.6936 210.874 34.7986C210.349 34.9035 209.841 35.0967 209.35 35.3781C209.26 35.3781 209.174 35.3661 209.093 35.3423C209.012 35.3184 208.923 35.3065 208.828 35.3065C208.084 35.2827 207.385 35.4281 206.732 35.7429C206.078 36.0577 205.439 36.3677 204.814 36.673C204.767 36.7636 204.743 36.8328 204.743 36.8804C204.743 37.0188 204.771 37.1523 204.829 37.2811C204.886 37.4099 204.915 37.5434 204.915 37.6817C204.891 37.7056 204.879 37.7294 204.879 37.7533C204.879 37.7771 204.869 37.801 204.85 37.8248C204.826 37.9393 204.795 38.0442 204.757 38.1396C204.724 38.2302 204.683 38.3351 204.636 38.4544C204.383 39.1984 204.244 39.9305 204.221 40.6507C204.197 41.2565 204.197 41.8503 204.221 42.4321C204.244 43.014 204.244 43.6078 204.221 44.2135C204.173 44.9624 204.056 45.6611 203.87 46.3097C203.985 46.8678 204.089 47.4568 204.185 48.0768C204.275 48.6921 204.392 49.3026 204.535 49.9083C204.674 50.514 204.841 51.1031 205.036 51.6754C205.237 52.243 205.499 52.7843 205.823 53.2994C205.799 53.3471 205.811 53.3829 205.859 53.4067C205.907 53.4258 205.954 53.4353 206.002 53.4353H206.281C206.395 53.4353 206.441 53.483 206.417 53.5784C206.465 53.65 206.5 53.7144 206.524 53.7716C206.548 53.8288 206.593 53.8813 206.66 53.929C206.708 53.9958 206.708 54.0888 206.66 54.208C206.641 54.6706 206.527 55.0999 206.317 55.4958C206.107 55.8916 205.978 56.3233 205.93 56.7907C205.649 56.8622 205.392 56.898 205.158 56.898C204.762 56.8742 204.414 56.7621 204.113 56.5617C203.813 56.3662 203.534 56.1277 203.276 55.8463C203.019 55.5697 202.773 55.2859 202.539 54.995C202.306 54.704 202.05 54.4536 201.774 54.2438C201.612 53.5904 201.454 52.8678 201.302 52.076C201.149 51.2843 200.899 50.6094 200.55 50.0514C200.641 49.8415 200.686 49.584 200.686 49.2787C200.71 48.8161 200.67 48.3558 200.565 47.898C200.46 47.4449 200.431 46.987 200.479 46.5244C200.479 46.2668 200.508 46.0093 200.565 45.7517C200.627 45.4941 200.667 45.239 200.686 44.9862C200.71 44.5903 200.67 44.2064 200.565 43.8344C200.46 43.4576 200.419 43.0712 200.443 42.6754C200.467 42.4894 200.508 42.3105 200.565 42.1388C200.627 41.9623 200.715 41.8049 200.829 41.6666C200.715 41.3852 200.679 41.1181 200.722 40.8654C200.746 40.4695 200.794 40.0951 200.865 39.7421C200.937 39.394 200.982 39.0458 201.001 38.6976C201.001 38.5116 200.992 38.3304 200.973 38.1539C200.949 37.9822 200.913 37.8129 200.865 37.646L200.55 37.5458C200.412 37.5458 200.279 37.5792 200.15 37.646C200.021 37.7175 199.909 37.801 199.814 37.8964C199.723 37.987 199.642 38.0609 199.57 38.1181C199.504 38.1754 199.434 38.204 199.363 38.204C199.315 38.204 199.263 38.1992 199.205 38.1897C199.148 38.1801 199.096 38.1754 199.048 38.1754C199 38.1754 198.912 38.2207 198.783 38.3113C198.659 38.4067 198.509 38.5068 198.333 38.6118C198.156 38.7167 197.987 38.8216 197.825 38.9266C197.663 39.0315 197.534 39.0935 197.438 39.1126C197.186 39.0696 196.983 38.9838 196.83 38.855C196.678 38.7262 196.537 38.5975 196.408 38.4687C196.279 38.3399 196.146 38.2231 196.008 38.1181C195.869 38.0132 195.695 37.9727 195.485 37.9965C195.414 37.8582 195.373 37.708 195.364 37.5458C195.349 37.3836 195.354 37.2191 195.378 37.0522V36.4941C195.54 36.1936 195.757 35.9432 196.029 35.7429C196.296 35.5474 196.58 35.3781 196.88 35.235L197.789 34.82C198.094 34.6817 198.373 34.5076 198.626 34.2978H198.941C199.36 34.3168 199.728 34.2334 200.043 34.0474C200.357 33.8614 200.655 33.6467 200.937 33.4035C201.213 33.1602 201.497 32.9098 201.788 32.6523C202.079 32.3947 202.401 32.1968 202.754 32.0585C203.007 32.1777 203.274 32.2779 203.555 32.359C203.832 32.4401 204.123 32.4925 204.428 32.5164C204.729 32.5164 205.043 32.4687 205.372 32.3733C205.697 32.2827 205.952 32.1086 206.138 31.851C206.257 31.8987 206.357 31.9273 206.438 31.9369C206.52 31.9464 206.617 31.9512 206.732 31.9512C207.08 31.975 207.43 31.9226 207.783 31.7938C208.132 31.6698 208.468 31.5148 208.792 31.3288C209.26 31.3478 209.72 31.3168 210.173 31.2358C210.626 31.1547 211.082 31.0688 211.539 30.9782C211.992 30.8828 212.446 30.7946 212.899 30.7135C213.352 30.6324 213.812 30.6038 214.279 30.6276C215.047 30.6515 215.803 30.5823 216.547 30.4202C217.296 30.2532 218.055 30.1936 218.822 30.2413C219.357 30.2652 219.886 30.3057 220.411 30.3629C220.935 30.4202 221.465 30.4393 221.999 30.4202C222.299 30.5585 222.574 30.6801 222.822 30.785C223.065 30.89 223.372 30.9186 223.745 30.8709C224.489 31.5005 225.163 32.235 225.769 33.0744V33.6682C225.745 34.2024 225.652 34.7246 225.49 35.235C225.328 35.7501 225.137 36.258 224.918 36.7588C224.694 37.2596 224.455 37.7485 224.202 38.2254C223.945 38.7024 223.699 39.1746 223.465 39.642C221.954 41.0156 220.439 42.3773 218.923 43.7271C217.411 45.0768 215.851 46.3813 214.244 47.6404C214.196 47.8741 214.132 48.084 214.051 48.27C213.969 48.456 213.917 48.6539 213.893 48.8638C213.893 48.9783 213.905 49.0713 213.929 49.1428C214.091 49.1905 214.237 49.2764 214.365 49.4004C214.494 49.5291 214.535 49.6985 214.487 49.9083H214.802C214.921 49.9083 214.981 49.956 214.981 50.0514L215.539 50.0872C216.421 50.1301 217.306 50.1062 218.193 50.0156C219.075 49.9202 219.965 49.8153 220.861 49.7008C221.758 49.5864 222.65 49.4767 223.537 49.3717C224.419 49.2668 225.304 49.2024 226.191 49.1786C226.401 49.107 226.623 49.0474 226.857 48.9997C227.09 48.9568 227.3 48.8638 227.486 48.7207H227.586C227.749 48.7207 227.873 48.7684 227.958 48.8638C228.039 48.9544 228.161 49.0116 228.323 49.0355C228.438 49.0355 228.559 49.0116 228.688 48.964C228.817 48.921 228.95 48.8876 229.089 48.8638C229.418 48.7684 229.761 48.7088 230.119 48.6849C230.481 48.6611 230.837 48.6277 231.185 48.5848C232.535 48.4655 233.875 48.3892 235.206 48.3558C236.532 48.3225 237.857 48.1531 239.183 47.8479C239.303 48.0101 239.467 48.1221 239.677 48.1841C239.887 48.2414 240.106 48.2986 240.335 48.3558C240.569 48.4131 240.786 48.4775 240.986 48.549C241.182 48.6158 241.315 48.7541 241.387 48.964ZM249.943 50.6452C249.943 51.0411 249.843 51.3845 249.643 51.6754C249.447 51.9663 249.373 52.3217 249.421 52.7414C249.092 52.9274 248.822 53.1706 248.613 53.4711C248.408 53.7764 248.21 54.0912 248.019 54.4155C246.483 55.4171 244.838 56.2255 243.082 56.8408C241.322 57.4608 239.51 57.7708 237.645 57.7708C237.531 57.7708 237.426 57.7184 237.33 57.6134C237.24 57.5085 237.147 57.3988 237.051 57.2843C236.961 57.1651 236.863 57.053 236.758 56.9481C236.653 56.8431 236.529 56.7907 236.386 56.7907C236.224 56.7907 236.097 56.8265 236.007 56.898C236.007 56.8503 236.012 56.8098 236.021 56.7764C236.035 56.7382 236.043 56.6977 236.043 56.6548C236.043 56.3734 236.007 56.0872 235.935 55.7962C235.864 55.5053 235.828 55.2191 235.828 54.9377C235.828 54.6134 235.888 54.3463 236.007 54.1365H236.422C236.656 54.1365 236.884 54.1198 237.109 54.0864C237.328 54.0482 237.566 54.0292 237.824 54.0292C238.077 54.0292 238.308 54.1007 238.518 54.2438C239.801 54.1961 241.02 53.9576 242.174 53.5284C243.323 53.0943 244.492 52.6675 245.679 52.2477C245.865 51.995 245.977 51.7112 246.016 51.3964C246.049 51.0816 246.135 50.7835 246.273 50.5021C245.667 49.9918 245.057 49.5911 244.442 49.3002C243.826 49.0093 243.111 48.9091 242.295 48.9997C241.804 48.6992 241.284 48.5252 240.736 48.4775C240.192 48.4298 239.639 48.3606 239.076 48.27C238.938 48.2461 238.792 48.2175 238.64 48.1841C238.492 48.146 238.334 48.1269 238.167 48.1269C238.053 48.1269 237.943 48.1555 237.838 48.2128C237.733 48.2748 237.705 48.363 237.753 48.4775C237.633 48.2915 237.476 48.1818 237.28 48.1484C237.08 48.1102 236.911 48.022 236.772 47.8837C236.028 47.836 235.377 47.7024 234.819 47.483C234.261 47.2589 233.644 47.0085 232.966 46.7318C232.78 46.6603 232.599 46.6078 232.423 46.5744C232.251 46.5411 232.082 46.4767 231.915 46.3813C231.5 46.1714 231.163 45.8924 230.906 45.5442C230.648 45.1961 230.443 44.805 230.291 44.3709C230.143 43.9417 230.033 43.4933 229.962 43.0259C229.89 42.5633 229.821 42.134 229.754 41.7382C229.964 41.3662 230.155 40.9822 230.326 40.5863C230.503 40.1905 230.648 39.7708 230.763 39.3272C230.906 39.2557 231.047 39.196 231.185 39.1483C231.323 39.1054 231.473 39.0482 231.636 38.9766C231.617 38.9289 231.607 38.8693 231.607 38.7978C231.607 38.6833 231.648 38.5688 231.729 38.4544C231.81 38.3351 231.826 38.2183 231.779 38.1038C232.289 37.6364 232.783 37.1523 233.26 36.6515C233.741 36.1507 234.156 35.5975 234.504 34.9917C234.853 34.8773 235.132 34.7032 235.342 34.4695C235.551 34.2358 235.761 33.9973 235.971 33.754C236.181 33.5108 236.415 33.289 236.672 33.0887C236.925 32.8932 237.249 32.7715 237.645 32.7238C237.741 32.5617 237.869 32.4281 238.032 32.3232C238.194 32.2183 238.356 32.1181 238.518 32.0227C238.685 31.9321 238.838 31.8272 238.976 31.7079C239.114 31.5935 239.219 31.4313 239.291 31.2214C239.663 31.2214 240.006 31.1523 240.321 31.014C240.636 30.8709 240.943 30.7183 241.244 30.5561C241.549 30.3939 241.859 30.2437 242.174 30.1054C242.484 29.9623 242.827 29.8908 243.204 29.8908C243.295 29.8908 243.388 29.8979 243.483 29.9122C243.574 29.9218 243.679 29.9385 243.798 29.9623C243.96 30.1245 244.07 30.3176 244.127 30.5418C244.184 30.7612 244.225 30.9997 244.249 31.2572C244.272 31.5148 244.289 31.7699 244.299 32.0227C244.313 32.2803 244.356 32.514 244.427 32.7238C244.218 33.1197 243.989 33.5156 243.741 33.9114C243.497 34.3073 243.178 34.6102 242.782 34.82H242.71C242.548 34.8439 242.398 34.8081 242.26 34.7127C242.117 34.6221 241.952 34.5768 241.766 34.5768C241.652 34.5768 241.559 34.6102 241.487 34.6769L241.315 34.8558C241.268 34.8987 241.203 34.944 241.122 34.9917C241.041 35.0394 240.931 35.0394 240.793 34.9917C240.464 35.111 240.335 35.3089 240.407 35.5855C239.963 35.6332 239.591 35.7668 239.291 35.9862C238.985 36.2103 238.706 36.456 238.454 36.7231C238.196 36.9901 237.939 37.2358 237.681 37.4599C237.423 37.6793 237.121 37.801 236.772 37.8248C236.377 38.5212 235.895 39.1388 235.327 39.6778C234.755 40.2119 234.283 40.8153 233.911 41.4878C233.977 41.6786 234.023 41.8765 234.047 42.0816C234.07 42.2914 234.106 42.5132 234.154 42.7469C234.364 43.0283 234.614 43.274 234.905 43.4838C235.196 43.6937 235.482 43.9035 235.764 44.1134H235.864C236.331 44.1134 236.763 44.1992 237.159 44.3709C237.555 44.5474 237.974 44.6356 238.418 44.6356C238.652 44.6356 238.849 44.5879 239.012 44.4926C239.617 44.6356 240.216 44.7525 240.807 44.8431C241.404 44.9385 242.005 45.01 242.61 45.0577C242.911 45.1007 243.218 45.1221 243.533 45.1221C243.848 45.1221 244.146 45.1579 244.427 45.2294C244.68 45.301 244.935 45.3892 245.193 45.4941C245.45 45.5991 245.706 45.7088 245.958 45.8232C246.497 46.0569 247.005 46.3121 247.482 46.5887C247.959 46.8701 248.384 47.204 248.756 47.5903C249.128 47.9719 249.419 48.4131 249.629 48.9139C249.838 49.4147 249.943 49.9918 249.943 50.6452Z" fill="#9D37C0"/>
</g>
</g>
</g>
</g>
<g clip-path="url(#clip4_2_10)">
<g clip-path="url(#clip5_2_10)">
<path d="M0.00360107 41.9992C0.00360107 18.8035 18.8075 0 42.0028 0C65.1984 0 84.0019 18.8039 84.0023 41.9992C84.0023 65.1948 65.1984 83.9983 42.0028 83.9987C18.8071 83.9987 0.00360107 65.1948 0.00360107 41.9992H0.00360107ZM42.0028 80.3585C63.1882 80.3585 80.3621 63.1846 80.3621 41.9992C80.3621 20.8137 63.1882 3.63978 42.0028 3.64015C20.8173 3.64015 3.64338 20.8141 3.64375 41.9992C3.64375 63.1846 20.8177 80.3585 42.0028 80.3585V80.3585Z" fill="#9D37C0"/>
<g clip-path="url(#clip6_2_10)">
<g clip-path="url(#clip7_2_10)">
<path d="M52.2102 34.3482C59.18 40.9364 61.6379 50.6352 47.8912 59.2068C49.8256 56.5879 50.8959 54.0019 51.1308 51.4111C51.6362 45.8225 48.1516 41.2755 44.3098 37.194C38.6787 31.2111 38.2599 25.4396 42.9913 19.0315C42.0161 27.4596 47.3422 29.7464 52.2102 34.3482ZM37.079 65.2317C40.3655 58.2949 40.9458 54.4424 32.7228 46.6638C30.4886 44.5502 28.7631 42.3968 27.5625 40.2408C26.0315 43.6606 24.8182 50.9126 29.2865 55.0865C32.3088 57.9096 36.461 59.6033 37.079 65.2317ZM43.1486 38.2867C38.6176 33.4718 35.3311 26.722 41.7089 18.0845C24.4356 24.8296 23.4407 35.6885 33.8176 45.5052C42.5608 53.775 42.1075 58.3411 38.5203 65.9141C55.4599 53.4253 49.5259 45.0625 43.1486 38.2867Z" fill="#9D37C0"/>
</g>
</g>
</g>
</g>
<defs>
<clipPath id="clip0_2_10">
<rect width="146.884" height="40.3631" fill="white" transform="translate(103.06 21.8178)"/>
</clipPath>
<clipPath id="clip1_2_10">
<rect width="146.884" height="40.3631" fill="white" transform="translate(103.06 21.8178)"/>
</clipPath>
<clipPath id="clip2_2_10">
<rect width="146.884" height="40.3631" fill="white" transform="translate(103.06 21.8178)"/>
</clipPath>
<clipPath id="clip3_2_10">
<rect width="146.884" height="40.3631" fill="white" transform="translate(103.06 21.8178)"/>
</clipPath>
<clipPath id="clip4_2_10">
<rect width="83.9986" height="83.9986" fill="white" transform="translate(0.00360107)"/>
</clipPath>
<clipPath id="clip5_2_10">
<rect width="83.9986" height="83.9986" fill="white" transform="translate(0.00360107)"/>
</clipPath>
<clipPath id="clip6_2_10">
<rect width="31.6646" height="47.8296" fill="white" transform="translate(26.1706 18.0845)"/>
</clipPath>
<clipPath id="clip7_2_10">
<rect width="31.6646" height="47.8296" fill="white" transform="translate(26.1706 18.0845)"/>
</clipPath>
</defs>
</svg>
