<svg width="85" height="84" viewBox="0 0 85 84" fill="none" xmlns="http://www.w3.org/2000/svg">
<g clip-path="url(#clip0_2_21)">
<g clip-path="url(#clip1_2_21)">
<path d="M0.00360107 41.9992C0.00360107 18.8035 18.8075 0 42.0028 0C65.1984 0 84.0019 18.8039 84.0023 41.9992C84.0023 65.1948 65.1984 83.9983 42.0028 83.9987C18.8071 83.9987 0.00360107 65.1948 0.00360107 41.9992H0.00360107ZM42.0028 80.3585C63.1882 80.3585 80.3621 63.1846 80.3621 41.9992C80.3621 20.8137 63.1882 3.63978 42.0028 3.64015C20.8173 3.64015 3.64338 20.8141 3.64375 41.9992C3.64375 63.1846 20.8177 80.3585 42.0028 80.3585V80.3585Z" fill="#D53F8C"/>
<g clip-path="url(#clip2_2_21)">
<g clip-path="url(#clip3_2_21)">
<path d="M52.2102 34.3482C59.18 40.9364 61.6379 50.6352 47.8912 59.2068C49.8256 56.5879 50.8959 54.0019 51.1308 51.4111C51.6362 45.8225 48.1516 41.2755 44.3098 37.194C38.6787 31.2111 38.2599 25.4396 42.9913 19.0315C42.0161 27.4596 47.3422 29.7464 52.2102 34.3482ZM37.079 65.2317C40.3655 58.2949 40.9458 54.4424 32.7228 46.6638C30.4886 44.5502 28.7631 42.3968 27.5625 40.2408C26.0315 43.6606 24.8182 50.9126 29.2865 55.0865C32.3088 57.9096 36.461 59.6033 37.079 65.2317ZM43.1486 38.2867C38.6176 33.4718 35.3311 26.722 41.7089 18.0845C24.4356 24.8296 23.4407 35.6885 33.8176 45.5052C42.5608 53.775 42.1075 58.3411 38.5203 65.9141C55.4599 53.4253 49.5259 45.0625 43.1486 38.2867Z" fill="#D53F8C"/>
</g>
</g>
</g>
</g>
<defs>
<clipPath id="clip0_2_21">
<rect width="83.9986" height="83.9986" fill="white" transform="translate(0.00360107)"/>
</clipPath>
<clipPath id="clip1_2_21">
<rect width="83.9986" height="83.9986" fill="white" transform="translate(0.00360107)"/>
</clipPath>
<clipPath id="clip2_2_21">
<rect width="31.6646" height="47.8296" fill="white" transform="translate(26.1706 18.0845)"/>
</clipPath>
<clipPath id="clip3_2_21">
<rect width="31.6646" height="47.8296" fill="white" transform="translate(26.1706 18.0845)"/>
</clipPath>
</defs>
</svg>
